<?xml version="1.0" encoding="utf-8"?>
<!DOCTYPE svg PUBLIC "-//W3C//DTD SVG 1.1//EN" "http://www.w3.org/Graphics/SVG/1.1/DTD/svg11.dtd">
<svg style="width:308px;height:308px;" version="1.1" id="图形" xmlns="http://www.w3.org/2000/svg" xmlns:xlink="http://www.w3.org/1999/xlink" x="0px" y="0px" width="1024px" height="1024px" viewBox="0 0 1024 1024" enable-background="new 0 0 1024 1024" xml:space="preserve">
  <path class="svgpath" data-index="path_0" fill="#FD5C00" d="M882.957 220.571c-16.755-12.562-39.795-25.124-58.644-35.594-20.944-10.468-39.797-23.033-58.644-33.502-39.797-23.035-79.588-46.064-119.385-69.098-18.849-10.469-39.794-20.938-58.643-33.502-16.756-10.469-46.077-18.845-75.404-18.845h-4.186c-25.134 0-58.646 10.469-73.303 18.845-18.852 12.563-39.798 23.033-58.645 35.594-39.797 23.034-79.593 43.969-119.386 67.003-18.849 12.563-39.793 23.034-58.645 35.596-18.847 10.469-39.794 20.939-58.643 33.502-31.418 20.938-67.024 69.097-67.024 119.349v345.482c0 50.25 35.606 100.505 67.024 119.348 35.606 25.124 79.588 46.063 117.289 69.098 39.794 23.030 79.588 43.97 119.386 69.098 18.847 10.467 39.794 20.937 58.645 33.501 16.755 10.469 46.075 20.939 73.303 20.939h12.563c43.984 0 98.443-37.694 129.857-56.539 37.699-23.028 77.495-43.968 117.292-66.999 37.698-20.939 81.683-43.973 117.286-67.002 29.325-20.939 67.026-69.095 67.026-119.349v-349.667c0.001-50.25-37.7-98.409-69.119-117.254v0zM897.619 666.555c0 43.97-33.509 85.847-58.644 102.598-31.418 20.937-69.117 41.876-102.627 60.719-35.607 20.939-69.117 37.694-102.628 58.629-27.226 16.749-75.397 50.252-115.194 50.252h-10.473c-25.134 0-48.173-10.469-62.834-18.844-18.848-10.469-35.605-18.847-52.362-31.409-33.508-18.842-69.117-37.69-104.722-58.629-33.514-18.844-71.209-39.782-102.625-60.719-27.229-16.749-58.645-60.719-58.645-104.688v-303.609c0-43.971 31.417-85.845 58.645-104.69 16.755-10.469 35.603-18.845 52.358-29.315 14.661-10.469 33.511-20.937 50.267-31.407 35.607-18.846 71.216-37.689 104.722-58.627 16.756-10.469 33.514-18.846 50.267-29.315 14.661-10.471 41.889-18.844 64.929-18.844h4.186c25.135 0 50.272 6.282 67.025 16.75 16.756 10.469 33.513 20.939 50.265 29.314 35.607 20.938 69.12 39.783 104.723 60.721 16.756 10.469 33.514 20.937 52.364 29.313 14.658 8.378 35.604 20.939 50.266 31.409 27.229 16.749 60.739 60.719 60.739 102.598v307.792z" />
<path class="svgpath" data-index="path_1" fill="#FD5C00" d="M516.98 683.366l245.236-245.235c7.933-7.933 10.111-18.615 4.865-23.86l-18.995-18.996c-5.244-5.244-15.927-3.067-23.859 4.866l-238.491 238.49-142.060-142.058c-5.244-5.245-13.749-5.244-18.993 0l-18.995 18.995c-5.245 5.245-5.245 13.749 0 18.993l170.959 170.96c5.244 5.244 13.746 5.244 18.992 0l18.996-18.997c0.958-0.955 1.737-2.020 2.342-3.158z" />

</svg>
